<svg fill="none" height="300" stroke="black" viewBox="-150 -150 300 300" width="300" xmlns="http://www.w3.org/2000/svg" xmlns:xlink="http://www.w3.org/1999/xlink">
<g transform="scale(1 -1)"><g><defs><rect fill="maroon" height="180" id="shape140547276034736" stroke="none" width="180" x="-90.0" y="-90.0"></rect></defs>
<g><use xlink:href="#shape140547276034736"></use>
<g transform="rotate(10)"><use xlink:href="#shape140547276034736"></use>
<g transform="rotate(10)"><use xlink:href="#shape140547276034736"></use>
<g transform="rotate(10)"><use xlink:href="#shape140547276034736"></use>
<g transform="rotate(10)"><use xlink:href="#shape140547276034736"></use>
<g transform="rotate(10)"><use xlink:href="#shape140547276034736"></use>
<g transform="rotate(10)"><use xlink:href="#shape140547276034736"></use>
<g transform="rotate(10)"><use xlink:href="#shape140547276034736"></use>
<use transform="rotate(10)" xlink:href="#shape140547276034736"></use></g></g></g></g></g></g></g></g></g>
<g><defs><rect fill="red" height="170" id="shape140547275488560" stroke="none" width="170" x="-85.0" y="-85.0"></rect></defs>
<g><use xlink:href="#shape140547275488560"></use>
<g transform="rotate(10)"><use xlink:href="#shape140547275488560"></use>
<g transform="rotate(10)"><use xlink:href="#shape140547275488560"></use>
<g transform="rotate(10)"><use xlink:href="#shape140547275488560"></use>
<g transform="rotate(10)"><use xlink:href="#shape140547275488560"></use>
<g transform="rotate(10)"><use xlink:href="#shape140547275488560"></use>
<g transform="rotate(10)"><use xlink:href="#shape140547275488560"></use>
<g transform="rotate(10)"><use xlink:href="#shape140547275488560"></use>
<use transform="rotate(10)" xlink:href="#shape140547275488560"></use></g></g></g></g></g></g></g></g></g>
<g><defs><rect fill="orange" height="160" id="shape140547277859136" stroke="none" width="160" x="-80.0" y="-80.0"></rect></defs>
<g><use xlink:href="#shape140547277859136"></use>
<g transform="rotate(10)"><use xlink:href="#shape140547277859136"></use>
<g transform="rotate(10)"><use xlink:href="#shape140547277859136"></use>
<g transform="rotate(10)"><use xlink:href="#shape140547277859136"></use>
<g transform="rotate(10)"><use xlink:href="#shape140547277859136"></use>
<g transform="rotate(10)"><use xlink:href="#shape140547277859136"></use>
<g transform="rotate(10)"><use xlink:href="#shape140547277859136"></use>
<g transform="rotate(10)"><use xlink:href="#shape140547277859136"></use>
<use transform="rotate(10)" xlink:href="#shape140547277859136"></use></g></g></g></g></g></g></g></g></g>
<g><defs><rect fill="yellow" height="150" id="shape140547277859040" stroke="none" width="150" x="-75.0" y="-75.0"></rect></defs>
<g><use xlink:href="#shape140547277859040"></use>
<g transform="rotate(10)"><use xlink:href="#shape140547277859040"></use>
<g transform="rotate(10)"><use xlink:href="#shape140547277859040"></use>
<g transform="rotate(10)"><use xlink:href="#shape140547277859040"></use>
<g transform="rotate(10)"><use xlink:href="#shape140547277859040"></use>
<g transform="rotate(10)"><use xlink:href="#shape140547277859040"></use>
<g transform="rotate(10)"><use xlink:href="#shape140547277859040"></use>
<g transform="rotate(10)"><use xlink:href="#shape140547277859040"></use>
<use transform="rotate(10)" xlink:href="#shape140547277859040"></use></g></g></g></g></g></g></g></g></g>
<g><defs><rect fill="white" height="140" id="shape140547277856928" stroke="none" width="140" x="-70.0" y="-70.0"></rect></defs>
<g><use xlink:href="#shape140547277856928"></use>
<g transform="rotate(10)"><use xlink:href="#shape140547277856928"></use>
<g transform="rotate(10)"><use xlink:href="#shape140547277856928"></use>
<g transform="rotate(10)"><use xlink:href="#shape140547277856928"></use>
<g transform="rotate(10)"><use xlink:href="#shape140547277856928"></use>
<g transform="rotate(10)"><use xlink:href="#shape140547277856928"></use>
<g transform="rotate(10)"><use xlink:href="#shape140547277856928"></use>
<g transform="rotate(10)"><use xlink:href="#shape140547277856928"></use>
<use transform="rotate(10)" xlink:href="#shape140547277856928"></use></g></g></g></g></g></g></g></g></g></g>
<g transform="scale(1 -1)"><circle cx="0" cy="0" fill="red" r="85" stroke="none"></circle>
<g><defs><circle cx="78" cy="7" fill="orange" id="shape140547275070912" r="4" stroke="none"></circle></defs>
<g><use xlink:href="#shape140547275070912"></use>
<g transform="rotate(7.5)"><use xlink:href="#shape140547275070912"></use>
<g transform="rotate(7.5)"><use xlink:href="#shape140547275070912"></use>
<g transform="rotate(7.5)"><use xlink:href="#shape140547275070912"></use>
<g transform="rotate(7.5)"><use xlink:href="#shape140547275070912"></use>
<g transform="rotate(7.5)"><use xlink:href="#shape140547275070912"></use>
<g transform="rotate(7.5)"><use xlink:href="#shape140547275070912"></use>
<g transform="rotate(7.5)"><use xlink:href="#shape140547275070912"></use>
<g transform="rotate(7.5)"><use xlink:href="#shape140547275070912"></use>
<g transform="rotate(7.5)"><use xlink:href="#shape140547275070912"></use>
<g transform="rotate(7.5)"><use xlink:href="#shape140547275070912"></use>
<g transform="rotate(7.5)"><use xlink:href="#shape140547275070912"></use>
<g transform="rotate(7.5)"><use xlink:href="#shape140547275070912"></use>
<g transform="rotate(7.5)"><use xlink:href="#shape140547275070912"></use>
<g transform="rotate(7.5)"><use xlink:href="#shape140547275070912"></use>
<g transform="rotate(7.5)"><use xlink:href="#shape140547275070912"></use>
<g transform="rotate(7.5)"><use xlink:href="#shape140547275070912"></use>
<g transform="rotate(7.5)"><use xlink:href="#shape140547275070912"></use>
<g transform="rotate(7.5)"><use xlink:href="#shape140547275070912"></use>
<g transform="rotate(7.5)"><use xlink:href="#shape140547275070912"></use>
<g transform="rotate(7.5)"><use xlink:href="#shape140547275070912"></use>
<g transform="rotate(7.5)"><use xlink:href="#shape140547275070912"></use>
<g transform="rotate(7.5)"><use xlink:href="#shape140547275070912"></use>
<use transform="rotate(7.5)" xlink:href="#shape140547275070912"></use></g></g></g></g></g></g></g></g></g></g></g></g></g></g></g></g></g></g></g></g></g></g></g></g>
<circle cx="0" cy="0" fill="yellow" r="70" stroke="none"></circle>
<g transform="rotate(11.25)"><defs><polygon fill="maroon" id="shape140547277191632" points="0,70 20,34 -20,34" stroke-width="0.1"></polygon></defs>
<g><use xlink:href="#shape140547277191632"></use>
<g transform="rotate(18)"><use xlink:href="#shape140547277191632"></use>
<g transform="rotate(18)"><use xlink:href="#shape140547277191632"></use>
<g transform="rotate(18)"><use xlink:href="#shape140547277191632"></use>
<g transform="rotate(18)"><use xlink:href="#shape140547277191632"></use>
<g transform="rotate(18)"><use xlink:href="#shape140547277191632"></use>
<g transform="rotate(18)"><use xlink:href="#shape140547277191632"></use>
<g transform="rotate(18)"><use xlink:href="#shape140547277191632"></use>
<g transform="rotate(18)"><use xlink:href="#shape140547277191632"></use>
<g transform="rotate(18)"><use xlink:href="#shape140547277191632"></use>
<g transform="rotate(18)"><use xlink:href="#shape140547277191632"></use>
<g transform="rotate(18)"><use xlink:href="#shape140547277191632"></use>
<g transform="rotate(18)"><use xlink:href="#shape140547277191632"></use>
<g transform="rotate(18)"><use xlink:href="#shape140547277191632"></use>
<g transform="rotate(18)"><use xlink:href="#shape140547277191632"></use>
<g transform="rotate(18)"><use xlink:href="#shape140547277191632"></use>
<g transform="rotate(18)"><use xlink:href="#shape140547277191632"></use>
<g transform="rotate(18)"><use xlink:href="#shape140547277191632"></use>
<g transform="rotate(18)"><use xlink:href="#shape140547277191632"></use>
<use transform="rotate(18)" xlink:href="#shape140547277191632"></use></g></g></g></g></g></g></g></g></g></g></g></g></g></g></g></g></g></g></g></g>
<circle cx="0" cy="0" fill="maroon" r="65" stroke="none"></circle>
<circle cx="0" cy="0" fill="#184D47" r="50" stroke="none"></circle>
<g><defs><ellipse cx="55" cy="5" fill="yellow" id="shape140547275446400" rx="4.0" ry="1.75" stroke="none"></ellipse></defs>
<g><use xlink:href="#shape140547275446400"></use>
<g transform="rotate(7)"><use xlink:href="#shape140547275446400"></use>
<g transform="rotate(7)"><use xlink:href="#shape140547275446400"></use>
<g transform="rotate(7)"><use xlink:href="#shape140547275446400"></use>
<g transform="rotate(7)"><use xlink:href="#shape140547275446400"></use>
<g transform="rotate(7)"><use xlink:href="#shape140547275446400"></use>
<g transform="rotate(7)"><use xlink:href="#shape140547275446400"></use>
<g transform="rotate(7)"><use xlink:href="#shape140547275446400"></use>
<g transform="rotate(7)"><use xlink:href="#shape140547275446400"></use>
<g transform="rotate(7)"><use xlink:href="#shape140547275446400"></use>
<g transform="rotate(7)"><use xlink:href="#shape140547275446400"></use>
<g transform="rotate(7)"><use xlink:href="#shape140547275446400"></use>
<g transform="rotate(7)"><use xlink:href="#shape140547275446400"></use>
<g transform="rotate(7)"><use xlink:href="#shape140547275446400"></use>
<g transform="rotate(7)"><use xlink:href="#shape140547275446400"></use>
<g transform="rotate(7)"><use xlink:href="#shape140547275446400"></use>
<g transform="rotate(7)"><use xlink:href="#shape140547275446400"></use>
<g transform="rotate(7)"><use xlink:href="#shape140547275446400"></use>
<g transform="rotate(7)"><use xlink:href="#shape140547275446400"></use>
<g transform="rotate(7)"><use xlink:href="#shape140547275446400"></use>
<g transform="rotate(7)"><use xlink:href="#shape140547275446400"></use>
<g transform="rotate(7)"><use xlink:href="#shape140547275446400"></use>
<g transform="rotate(7)"><use xlink:href="#shape140547275446400"></use>
<g transform="rotate(7)"><use xlink:href="#shape140547275446400"></use>
<g transform="rotate(7)"><use xlink:href="#shape140547275446400"></use>
<use transform="rotate(7)" xlink:href="#shape140547275446400"></use></g></g></g></g></g></g></g></g></g></g></g></g></g></g></g></g></g></g></g></g></g></g></g></g></g></g>
<circle cx="0" cy="-10" fill="maroon" r="40" stroke="none"></circle>
<ellipse cx="0" cy="0" fill="white" rx="10.0" ry="5.0" stroke="none" transform="rotate(-56) translate(-16 0) scale(1.0609 1.0609)"></ellipse>
<ellipse cx="0" cy="0" fill="maroon" rx="6.0" ry="4.0" stroke="none" transform="rotate(-56) translate(-18 0) scale(1.0609 1.0609)"></ellipse>
<g><g><g><g><g><g><circle cx="0" cy="0" r="0" stroke="none"></circle>
<g><ellipse cx="0" cy="0" fill="white" rx="10.0" ry="5.0" stroke="none" transform="rotate(0) translate(20 0) scale(1.0 1.0)"></ellipse>
<ellipse cx="0" cy="0" fill="maroon" rx="6.0" ry="4.0" stroke="none" transform="rotate(0) translate(22 0) scale(1.0 1.0)"></ellipse></g></g>
<g><ellipse cx="0" cy="0" fill="white" rx="10.0" ry="5.0" stroke="none" transform="rotate(28) translate(18 0) scale(1.03 1.03)"></ellipse>
<ellipse cx="0" cy="0" fill="maroon" rx="6.0" ry="4.0" stroke="none" transform="rotate(28) translate(20 0) scale(1.03 1.03)"></ellipse></g></g>
<g><ellipse cx="0" cy="0" fill="white" rx="10.0" ry="5.0" stroke="none" transform="rotate(56) translate(16 0) scale(1.0609 1.0609)"></ellipse>
<ellipse cx="0" cy="0" fill="maroon" rx="6.0" ry="4.0" stroke="none" transform="rotate(56) translate(18 0) scale(1.0609 1.0609)"></ellipse></g></g>
<g><ellipse cx="0" cy="0" fill="white" rx="10.0" ry="5.0" stroke="none" transform="rotate(0) translate(-20 0) scale(1.0 1.0)"></ellipse>
<ellipse cx="0" cy="0" fill="maroon" rx="6.0" ry="4.0" stroke="none" transform="rotate(0) translate(-22 0) scale(1.0 1.0)"></ellipse></g></g>
<g><ellipse cx="0" cy="0" fill="white" rx="10.0" ry="5.0" stroke="none" transform="rotate(-28) translate(-18 0) scale(1.03 1.03)"></ellipse>
<ellipse cx="0" cy="0" fill="maroon" rx="6.0" ry="4.0" stroke="none" transform="rotate(-28) translate(-20 0) scale(1.03 1.03)"></ellipse></g></g>
<g><ellipse cx="0" cy="0" fill="white" rx="10.0" ry="5.0" stroke="none" transform="rotate(-56) translate(-16 0) scale(1.0609 1.0609)"></ellipse>
<ellipse cx="0" cy="0" fill="maroon" rx="6.0" ry="4.0" stroke="none" transform="rotate(-56) translate(-18 0) scale(1.0609 1.0609)"></ellipse></g></g>
<g><g><g><g><g><g><g><g><g><g><g><g><g><circle cx="0" cy="0" r="0" stroke="none"></circle>
<polygon fill="yellow" points="6.5,0 0,3 -6.5,0 0,-3" stroke="none" transform="rotate(0) translate(45 0) scale(1.0 1.0)"></polygon></g>
<polygon fill="yellow" points="6.5,0 0,3 -6.5,0 0,-3" stroke="none" transform="rotate(15) translate(44 0) scale(1.05 1.05)"></polygon></g>
<polygon fill="yellow" points="6.5,0 0,3 -6.5,0 0,-3" stroke="none" transform="rotate(30) translate(43 0) scale(1.1025 1.1025)"></polygon></g>
<polygon fill="yellow" points="6.5,0 0,3 -6.5,0 0,-3" stroke="none" transform="rotate(45) translate(42 0) scale(1.1576250000000001 1.1576250000000001)"></polygon></g>
<polygon fill="yellow" points="6.5,0 0,3 -6.5,0 0,-3" stroke="none" transform="rotate(60) translate(41 0) scale(1.2155062500000002 1.2155062500000002)"></polygon></g>
<polygon fill="yellow" points="6.5,0 0,3 -6.5,0 0,-3" stroke="none" transform="rotate(75) translate(40 0) scale(1.2762815625000004 1.2762815625000004)"></polygon></g>
<polygon fill="yellow" points="6.5,0 0,3 -6.5,0 0,-3" stroke="none" transform="rotate(0) translate(-45 0) scale(1.0 1.0)"></polygon></g>
<polygon fill="yellow" points="6.5,0 0,3 -6.5,0 0,-3" stroke="none" transform="rotate(-15) translate(-44 0) scale(1.05 1.05)"></polygon></g>
<polygon fill="yellow" points="6.5,0 0,3 -6.5,0 0,-3" stroke="none" transform="rotate(-30) translate(-43 0) scale(1.1025 1.1025)"></polygon></g>
<polygon fill="yellow" points="6.5,0 0,3 -6.5,0 0,-3" stroke="none" transform="rotate(-45) translate(-42 0) scale(1.1576250000000001 1.1576250000000001)"></polygon></g>
<polygon fill="yellow" points="6.5,0 0,3 -6.5,0 0,-3" stroke="none" transform="rotate(-60) translate(-41 0) scale(1.2155062500000002 1.2155062500000002)"></polygon></g>
<polygon fill="yellow" points="6.5,0 0,3 -6.5,0 0,-3" stroke="none" transform="rotate(-75) translate(-40 0) scale(1.2762815625000004 1.2762815625000004)"></polygon></g>
<polygon fill="yellow" points="6.5,0 0,3 -6.5,0 0,-3" stroke="none" transform="translate(0 41) rotate(90) scale(1.4071004226562505 1.4071004226562505)"></polygon></g>
<g><ellipse cx="0" cy="0" fill="white" rx="10.0" ry="5.0" stroke="none" transform="translate(0 20) rotate(90) scale(1.1592740743 1.1592740743)"></ellipse>
<ellipse cx="0" cy="0" fill="maroon" rx="6.0" ry="4.0" stroke="none" transform="translate(0 21) rotate(90) scale(1.1592740743 1.1592740743)"></ellipse></g></g>
<g transform="scale(1 -1)"><rect fill="black" height="18" stroke="none" width="170" x="-85.0" y="-21.0"></rect>
<ellipse cx="0" cy="-45" fill="black" rx="70.0" ry="30.0" stroke="none"></ellipse>
<ellipse cx="0" cy="-70" fill="yellow" rx="22.5" ry="10.0" stroke="none"></ellipse>
<ellipse cx="0" cy="-63" fill="#FF7733" rx="15.0" ry="10.0" stroke="none"></ellipse>
<polygon fill="white" points="12,328 28,323 51,317 72,307 96,292 121,270 147,239 170,200 182,170 192,141 214,111 233,89 267,65 294,50 328,40 359,34 387,33 416,35 436,39 463,47 432,50 408,55 385,59 362,68 340,81 318,95 302,107 285,120 266,142 252,158 239,177 231,196 225,212 216,232 206,251 193,271 173,291 157,306 135,318 112,328 83,335 56,338 32,335" stroke="green" transform="translate(-70 65) scale(3 3) translate(30 20) scale(1 -1) translate(6 34) scale(0.046 0.046) rotate(38)"></polygon>
<polygon fill="white" points="12,328 28,323 51,317 72,307 96,292 121,270 147,239 170,200 182,170 192,141 214,111 233,89 267,65 294,50 328,40 359,34 387,33 416,35 436,39 463,47 432,50 408,55 385,59 362,68 340,81 318,95 302,107 285,120 266,142 252,158 239,177 231,196 225,212 216,232 206,251 193,271 173,291 157,306 135,318 112,328 83,335 56,338 32,335" stroke="green" transform="scale(-1 1) translate(-70 65) scale(3 3) translate(30 20) scale(1 -1) translate(6 34) scale(0.046 0.046) rotate(38)"></polygon></g>
<g transform="scale(1 -1)"><circle cx="0" cy="-9" fill="red" r="31" stroke="none" transform="translate(0 -9)"></circle>
<circle cx="0" cy="-8" fill="orange" r="27" stroke="none" transform="translate(0 -9)"></circle>
<circle cx="0" cy="-8" fill="yellow" r="24" stroke="none" transform="translate(0 -9)"></circle>
<g><circle cx="-40" cy="-60" fill="orange" r="18" stroke="none"></circle>
<circle cx="-40" cy="-60" fill="orange" r="18" stroke="none" transform="scale(-1 1)"></circle></g>
<g><circle cx="-40" cy="-60" fill="yellow" r="12" stroke="none"></circle>
<circle cx="-40" cy="-60" fill="yellow" r="12" stroke="none" transform="scale(-1 1)"></circle></g>
<g><circle cx="-40" cy="-60" fill="white" r="6" stroke="none"></circle>
<circle cx="-40" cy="-60" fill="white" r="6" stroke="none" transform="scale(-1 1)"></circle></g>
<polygon fill="orange" points="90,-20 -90,-20 -82.5,-35 82.5,-35" stroke="none"></polygon>
<polygon fill="yellow" points="83,-25 -83,-25 -80,-32 80,-32" stroke="none"></polygon>
<circle cx="-45" cy="-27.5" fill="orange" r="5" stroke="none"></circle>
<circle cx="45" cy="-27.5" fill="orange" r="5" stroke="none"></circle>
<circle cx="-65" cy="-27.5" fill="orange" r="5" stroke="none"></circle>
<circle cx="65" cy="-27.5" fill="orange" r="5" stroke="none"></circle>
<circle cx="-45" cy="-27.5" fill="yellow" r="2.5" stroke="none"></circle>
<circle cx="45" cy="-27.5" fill="yellow" r="2.5" stroke="none"></circle>
<circle cx="-65" cy="-27.5" fill="yellow" r="2.5" stroke="none"></circle>
<circle cx="65" cy="-27.5" fill="yellow" r="2.5" stroke="none"></circle></g>
<g transform="scale(1 -1)"><g><circle cx="-28" cy="-20" fill="orange" r="13" stroke="none"></circle>
<circle cx="-28" cy="-20" fill="orange" r="13" stroke="none" transform="scale(-1 1)"></circle></g>
<g><circle cx="-28" cy="-20" fill="yellow" r="7" stroke="none"></circle>
<circle cx="-28" cy="-20" fill="yellow" r="7" stroke="none" transform="scale(-1 1)"></circle></g>
<g><circle cx="-28" cy="-20" fill="white" r="5" stroke="none"></circle>
<circle cx="-28" cy="-20" fill="white" r="5" stroke="none" transform="scale(-1 1)"></circle></g>
<ellipse cx="0" cy="-30" fill="#FF7733" rx="25.0" ry="32.5"></ellipse>
<polygon fill="black" points="321,6 283,71 233,134 233,134 185,174 144,199 106,216 79,226 63,236 51,249 43,267 40,283 41,305 49,328 59,342 69,356 88,376 107,393 131,408 155,417 177,424 203,431 229,436 262,435 298,429 328,418 362,402 303,384 427,351 463,300 492,221 465,222 429,218 386,198 353,167 333,129 323,94" transform="scale(1 -1) scale(0.055 0.055) translate(-35 150)"></polygon>
<polygon fill="black" points="321,6 283,71 233,134 233,134 185,174 144,199 106,216 79,226 63,236 51,249 43,267 40,283 41,305 49,328 59,342 69,356 88,376 107,393 131,408 155,417 177,424 203,431 229,436 262,435 298,429 328,418 362,402 303,384 427,351 463,300 492,221 465,222 429,218 386,198 353,167 333,129 323,94" transform="scale(-1 1) scale(1 -1) scale(0.055 0.055) translate(-35 150)"></polygon>
<ellipse cx="11" cy="-25" fill="white" rx="4.5" ry="2.5" stroke="none"></ellipse>
<ellipse cx="11" cy="-25" fill="white" rx="4.5" ry="2.5" stroke="none" transform="scale(-1 1)"></ellipse>
<circle cx="11" cy="-25" fill="#A73489" r="2" stroke-width="0.5"></circle>
<circle cx="11" cy="-25" fill="#A73489" r="2" stroke-width="0.5" transform="scale(-1 1)"></circle>
<circle cx="2.7" cy="-38" fill="black" r="3" stroke="none"></circle>
<circle cx="2.7" cy="-38" fill="black" r="3" stroke="none" transform="scale(-1 1)"></circle>
<polygon fill="black" points="0,-28 5,-38 -5,-38" stroke="none"></polygon>
<circle cx="0" cy="-3" fill="red" r="4" stroke="none"></circle></g>
<g transform="scale(1 -1)"><polygon fill="black" points="12,13 25,109 38,145 63,176 117,220 306,315 537,186 565,152 581,112 589,73 594,21 510,22 496,62 483,95 469,116 439,141 296,212 162,141 140,118 123,89 110,56 103,15" transform="scale(1 1.6) scale(1 -1) translate(-12 -1) scale(0.039 0.039)"></polygon>
<polygon fill="#E60000" points="29,75 111,30 125,24 138,24 150,31 176,50 188,54 200,49 222,29 232,25 246,25 261,31 284,45 333,75 304,82 278,89 248,93 217,94 191,95 156,93 130,91 96,86 70,81 46,77" transform="scale(1 -1) translate(-13 43) scale(0.07 0.07)"></polygon>
<polygon fill="red" points="40,85 54,82 74,88 95,94 114,97 134,100 156,100 179,100 199,100 225,97 254,93 275,89 294,84 314,82 327,87 319,97 289,117 261,128 229,136 201,139 171,141 137,140 110,132 85,121 62,109 47,98" stroke="none" transform="scale(1 -1) translate(-13 42) scale(0.07 0.07)"></polygon>
<polygon fill="white" points="12,328 28,323 51,317 72,307 96,292 121,270 147,239 170,200 182,170 192,141 214,111 233,89 267,65 294,50 328,40 359,34 387,33 416,35 436,39 463,47 432,50 408,55 385,59 362,68 340,81 318,95 302,107 285,120 266,142 252,158 239,177 231,196 225,212 216,232 206,251 193,271 173,291 157,306 135,318 112,328 83,335 56,338 32,335" stroke="black" transform="scale(1 -1) translate(6 34) scale(0.046 0.046)"></polygon>
<polygon fill="white" points="12,328 28,323 51,317 72,307 96,292 121,270 147,239 170,200 182,170 192,141 214,111 233,89 267,65 294,50 328,40 359,34 387,33 416,35 436,39 463,47 432,50 408,55 385,59 362,68 340,81 318,95 302,107 285,120 266,142 252,158 239,177 231,196 225,212 216,232 206,251 193,271 173,291 157,306 135,318 112,328 83,335 56,338 32,335" stroke="black" transform="scale(-1 1) scale(1 -1) translate(6 34) scale(0.046 0.046)"></polygon></g>
</svg>